<svg id="visual" viewBox="0 0 1781 800" width="1781" height="800" xmlns="http://www.w3.org/2000/svg" xmlns:xlink="http://www.w3.org/1999/xlink" version="1.1"><rect x="0" y="0" width="1781" height="800" fill="#031d37"></rect><defs><linearGradient id="grad1_0" x1="55.1%" y1="100%" x2="100%" y2="0%"><stop offset="5.475000000000004%" stop-color="#ffffff" stop-opacity="1"></stop><stop offset="94.52499999999999%" stop-color="#ffffff" stop-opacity="1"></stop></linearGradient></defs><defs><linearGradient id="grad1_1" x1="55.1%" y1="100%" x2="100%" y2="0%"><stop offset="5.475000000000004%" stop-color="#ffffff" stop-opacity="1"></stop><stop offset="94.52499999999999%" stop-color="#031d37" stop-opacity="1"></stop></linearGradient></defs><defs><linearGradient id="grad2_0" x1="0%" y1="100%" x2="44.9%" y2="0%"><stop offset="5.475000000000004%" stop-color="#ffffff" stop-opacity="1"></stop><stop offset="94.52499999999999%" stop-color="#ffffff" stop-opacity="1"></stop></linearGradient></defs><defs><linearGradient id="grad2_1" x1="0%" y1="100%" x2="44.9%" y2="0%"><stop offset="5.475000000000004%" stop-color="#031d37" stop-opacity="1"></stop><stop offset="94.52499999999999%" stop-color="#ffffff" stop-opacity="1"></stop></linearGradient></defs><g transform="translate(1781, 800)"><path d="M-680 0C-635.7 -75.9 -591.3 -151.7 -561.7 -232.7C-532.1 -313.6 -517.3 -399.7 -470.2 -470.2C-423.2 -540.8 -344 -595.9 -260.2 -628.2C-176.5 -660.6 -88.2 -670.3 0 -680L0 0Z" fill="#7d8495"></path><path d="M-340 0C-317.8 -37.9 -295.7 -75.9 -280.9 -116.3C-266.1 -156.8 -258.6 -199.8 -235.1 -235.1C-211.6 -270.4 -172 -297.9 -130.1 -314.1C-88.2 -330.3 -44.1 -335.2 0 -340L0 0Z" fill="#ffffff"></path></g><g transform="translate(0, 0)"><path d="M680 0C673.6 94.9 667.2 189.9 621.8 257.5C576.4 325.2 492 365.6 429.9 429.9C367.9 494.3 328.2 582.6 260.2 628.2C192.3 673.9 96.1 677 0 680L0 0Z" fill="#7d8495"></path><path d="M340 0C336.8 47.5 333.6 94.9 310.9 128.8C288.2 162.6 246 182.8 215 215C183.9 247.1 164.1 291.3 130.1 314.1C96.1 337 48.1 338.5 0 340L0 0Z" fill="#ffffff"></path></g></svg>
